<?xml version="1.0" standalone="no"?>
<!DOCTYPE svg PUBLIC "-//W3C//DTD SVG 20010904//EN"
 "http://www.w3.org/TR/2001/REC-SVG-20010904/DTD/svg10.dtd">
<svg version="1.0" xmlns="http://www.w3.org/2000/svg"
 width="60.000000pt" height="60.000000pt" viewBox="0 0 60.000000 60.000000"
 preserveAspectRatio="xMidYMid meet">

<g transform="translate(0.000000,60.000000) scale(0.100000,-0.100000)"
fill="#000000" stroke="none">
<path d="M243 453 c-19 -7 -16 -27 6 -47 15 -14 30 -17 63 -12 33 5 20 -2 -51
-28 -51 -19 -96 -37 -98 -40 -3 -3 -22 6 -42 19 -43 30 -51 31 -51 5 0 -27 22
-70 49 -94 27 -24 26 -32 -1 -39 -12 -4 -19 -9 -16 -12 5 -6 153 71 192 100
16 12 17 17 6 30 -8 9 -8 15 -2 15 17 0 112 -21 112 -25 0 -2 -14 -34 -32 -72
-25 -53 -32 -63 -36 -45 -4 27 -3 27 -47 1 -37 -22 -43 -39 -6 -19 19 10 21 8
21 -20 0 -20 5 -30 15 -30 19 0 81 65 112 117 16 28 42 52 78 72 55 31 78 66
54 83 -8 5 -51 7 -97 4 -65 -4 -91 -1 -125 13 -52 22 -88 30 -104 24z"/>
</g>
</svg>
